<?xml version="1.0" encoding="utf-8"?>
<!DOCTYPE svg PUBLIC "-//W3C//DTD SVG 1.1//EN" "http://www.w3.org/Graphics/SVG/1.1/DTD/svg11.dtd">
<svg version="1.1" id="Layer_1" xmlns="http://www.w3.org/2000/svg" xmlns:xlink="http://www.w3.org/1999/xlink" x="0px" y="0px"
	 width="500px" height="200px" viewBox="0 0 500 200" enable-background="new 0 0 500 200" xml:space="preserve">
<g>
	<g>
		<line fill="none" stroke="#666666" stroke-miterlimit="10" x1="341" y1="169.5" x2="282" y2="169.5"/>
		<g>
			<polygon fill="#666666" points="284.778,165.547 283.205,169.25 284.778,172.953 276,169.25 			"/>
		</g>
	</g>
</g>
<g>
	<g>
		<line fill="none" stroke="#666666" stroke-miterlimit="10" x1="204.5" y1="93" x2="204.5" y2="143"/>
		<g>
			<polygon fill="#666666" points="200.797,140.472 204.5,142.045 208.203,140.472 204.5,149.25 			"/>
		</g>
	</g>
</g>
<g>
	<g>
		<line fill="none" stroke="#009245" stroke-miterlimit="10" x1="384.5" y1="151" x2="384.5" y2="101"/>
		<g>
			<polygon fill="#009245" points="388.203,104.028 384.5,102.455 380.797,104.028 384.5,95.25 			"/>
		</g>
	</g>
</g>
<path fill="none" stroke="#333333" stroke-miterlimit="10" d="M432.5,90.5c0,1.657-1.343,3-3,3h-257c-1.657,0-3-1.343-3-3v-77
	c0-1.657,1.343-3,3-3h257c1.657,0,3,1.343,3,3V90.5z"/>
<g>
	<g>
		<defs>
			<rect id="SVGID_1_" x="186.534" y="22.091" width="232.985" height="53.638"/>
		</defs>
		<clipPath id="SVGID_2_">
			<use xlink:href="#SVGID_1_"  overflow="visible"/>
		</clipPath>
		<g clip-path="url(#SVGID_2_)">
			<defs>
				<rect id="SVGID_3_" x="185.169" y="21.092" width="238" height="56"/>
			</defs>
			<clipPath id="SVGID_4_">
				<use xlink:href="#SVGID_3_"  overflow="visible"/>
			</clipPath>
			<g clip-path="url(#SVGID_4_)">
				<defs>
					<rect id="SVGID_5_" x="185.169" y="21.092" width="238" height="56"/>
				</defs>
				<clipPath id="SVGID_6_">
					<use xlink:href="#SVGID_5_"  overflow="visible"/>
				</clipPath>
				<g opacity="0.3" clip-path="url(#SVGID_6_)">
					<g>
						<defs>
							<rect id="SVGID_7_" x="216.548" y="39.437" width="33.555" height="36.292"/>
						</defs>
						<clipPath id="SVGID_8_">
							<use xlink:href="#SVGID_7_"  overflow="visible"/>
						</clipPath>
						<path clip-path="url(#SVGID_8_)" d="M233.325,39.437c9.072,0,16.776,6.625,16.776,18.217c0,11.451-7.704,18.076-16.776,18.076
							s-16.777-6.625-16.777-18.076C216.548,46.062,224.253,39.437,233.325,39.437"/>
					</g>
				</g>
				<path clip-path="url(#SVGID_6_)" fill="#F7C819" d="M233.325,38.437c9.072,0,16.776,6.625,16.776,18.217
					c0,11.451-7.704,18.076-16.776,18.076s-16.777-6.625-16.777-18.076C216.548,45.062,224.253,38.437,233.325,38.437"/>
				<g opacity="0.3" clip-path="url(#SVGID_6_)">
					<g>
						<defs>
							<rect id="SVGID_9_" x="186.534" y="39.437" width="24.338" height="36.292"/>
						</defs>
						<clipPath id="SVGID_10_">
							<use xlink:href="#SVGID_9_"  overflow="visible"/>
						</clipPath>
						<path clip-path="url(#SVGID_10_)" d="M188.406,68.6c2.952,2.446,6.049,4.394,11.017,4.394c5.4,0,8.209-3.168,8.209-6.843
							c0-4.321-4.465-6.192-8.425-7.631c-5.257-1.873-11.017-3.961-11.017-9.866c0-5.039,3.961-9.217,11.16-9.217
							c3.673,0,7.346,1.514,9.865,3.602l-1.728,2.231c-2.306-1.728-4.753-3.096-8.281-3.096c-5.327,0-7.776,3.096-7.776,6.264
							c0,3.961,4.033,5.474,8.137,6.983c5.4,2.019,11.305,3.818,11.305,10.587c0,5.184-4.176,9.721-11.665,9.721
							c-5.112,0-9.577-2.16-12.673-4.752L188.406,68.6z"/>
					</g>
				</g>
				<path clip-path="url(#SVGID_6_)" fill="#F7C819" d="M188.406,67.6c2.952,2.446,6.049,4.394,11.017,4.394
					c5.4,0,8.209-3.168,8.209-6.843c0-4.321-4.465-6.192-8.425-7.631c-5.257-1.873-11.017-3.961-11.017-9.866
					c0-5.039,3.961-9.217,11.16-9.217c3.673,0,7.346,1.514,9.865,3.602l-1.728,2.231c-2.306-1.728-4.753-3.096-8.281-3.096
					c-5.327,0-7.776,3.096-7.776,6.264c0,3.961,4.033,5.474,8.137,6.983c5.4,2.019,11.305,3.818,11.305,10.587
					c0,5.184-4.176,9.721-11.665,9.721c-5.112,0-9.577-2.16-12.673-4.752L188.406,67.6z"/>
				<g opacity="0.3" clip-path="url(#SVGID_6_)">
					<g>
						<defs>
							<rect id="SVGID_11_" x="259.03" y="23.092" width="6.553" height="52.637"/>
						</defs>
						<clipPath id="SVGID_12_">
							<use xlink:href="#SVGID_11_"  overflow="visible"/>
						</clipPath>
						<path clip-path="url(#SVGID_12_)" d="M259.03,23.092h3.168v47.597c0,1.51,0.648,2.231,1.514,2.231
							c0.286,0,0.574,0,1.295-0.144l0.576,2.59c-0.648,0.218-1.297,0.363-2.304,0.363c-2.81,0-4.249-1.729-4.249-5.474V23.092z"/>
					</g>
				</g>
				<path clip-path="url(#SVGID_6_)" fill="#F7C819" d="M259.03,22.092h3.168v47.597c0,1.51,0.648,2.231,1.514,2.231
					c0.286,0,0.574,0,1.295-0.144l0.576,2.59c-0.648,0.218-1.297,0.363-2.304,0.363c-2.81,0-4.249-1.729-4.249-5.474V22.092z"/>
				<g opacity="0.3" clip-path="url(#SVGID_6_)">
					<g>
						<defs>
							<rect id="SVGID_13_" x="272.725" y="39.437" width="25.49" height="36.292"/>
						</defs>
						<clipPath id="SVGID_14_">
							<use xlink:href="#SVGID_13_"  overflow="visible"/>
						</clipPath>
						<path clip-path="url(#SVGID_14_)" d="M295.046,53.189c0.145-5.254-1.367-10.943-8.135-10.943
							c-4.682,0-8.713,2.305-11.019,4.033l-1.438-2.377c2.447-1.729,7.199-4.465,12.815-4.465c8.209,0,10.944,5.906,10.944,13.322
							v22.104h-2.663l-0.36-4.463h-0.145c-3.527,2.807-7.703,5.327-12.24,5.327c-5.473,0-10.081-2.952-10.081-9.506
							C272.725,58.591,279.71,54.918,295.046,53.189 M283.31,72.993c3.96,0,7.488-1.944,11.736-5.617V55.638
							c-14.185,1.658-19.008,4.97-19.008,10.442C276.038,71.048,279.35,72.993,283.31,72.993"/>
					</g>
				</g>
				<path clip-path="url(#SVGID_6_)" fill="#F7C819" d="M295.046,52.189c0.145-5.254-1.367-10.943-8.135-10.943
					c-4.682,0-8.713,2.305-11.019,4.033l-1.438-2.377c2.447-1.729,7.199-4.465,12.815-4.465c8.209,0,10.944,5.906,10.944,13.322
					v22.104h-2.663l-0.36-4.463h-0.145c-3.527,2.807-7.703,5.327-12.24,5.327c-5.473,0-10.081-2.952-10.081-9.506
					C272.725,57.591,279.71,53.918,295.046,52.189 M283.31,71.993c3.96,0,7.488-1.944,11.736-5.617V54.638
					c-14.185,1.658-19.008,4.97-19.008,10.442C276.038,70.048,279.35,71.993,283.31,71.993"/>
				<g opacity="0.3" clip-path="url(#SVGID_6_)">
					<g>
						<defs>
							<rect id="SVGID_15_" x="310.106" y="39.437" width="16.489" height="35.427"/>
						</defs>
						<clipPath id="SVGID_16_">
							<use xlink:href="#SVGID_15_"  overflow="visible"/>
						</clipPath>
						<path clip-path="url(#SVGID_16_)" d="M310.106,40.302h2.736l0.288,6.408h0.216c2.305-4.248,5.689-7.272,9.793-7.272
							c1.297,0,2.305,0.144,3.456,0.72l-0.719,2.88c-1.153-0.432-1.801-0.575-3.169-0.575c-3.096,0-6.768,2.377-9.434,8.856v23.545
							h-3.168V40.302z"/>
					</g>
				</g>
				<path clip-path="url(#SVGID_6_)" fill="#F7C819" d="M310.106,39.302h2.736l0.288,6.408h0.216
					c2.305-4.248,5.689-7.272,9.793-7.272c1.297,0,2.305,0.144,3.456,0.72l-0.719,2.88c-1.153-0.432-1.801-0.575-3.169-0.575
					c-3.096,0-6.768,2.377-9.434,8.856v23.545h-3.168V39.302z"/>
				<path clip-path="url(#SVGID_6_)" fill="#666666" d="M332.613,67.599c2.952,2.447,6.049,4.393,11.017,4.393
					c5.4,0,8.209-3.168,8.209-6.841c0-4.321-4.465-6.192-8.425-7.633c-5.257-1.872-11.017-3.96-11.017-9.864
					c0-5.041,3.961-9.218,11.16-9.218c3.673,0,7.346,1.513,9.865,3.601l-1.728,2.232c-2.306-1.729-4.753-3.096-8.281-3.096
					c-5.327,0-7.776,3.096-7.776,6.264c0,3.961,4.033,5.473,8.137,6.984c5.4,2.017,11.305,3.816,11.305,10.586
					c0,5.184-4.176,9.721-11.665,9.721c-5.112,0-9.577-2.16-12.673-4.753L332.613,67.599z"/>
				<path clip-path="url(#SVGID_6_)" fill="#666666" d="M362.868,67.599c2.951,2.447,6.049,4.393,11.017,4.393
					c5.399,0,8.209-3.168,8.209-6.841c0-4.321-4.466-6.192-8.425-7.633c-5.258-1.872-11.018-3.96-11.018-9.864
					c0-5.041,3.961-9.218,11.161-9.218c3.673,0,7.345,1.513,9.865,3.601l-1.728,2.232c-2.306-1.729-4.754-3.096-8.281-3.096
					c-5.328,0-7.777,3.096-7.777,6.264c0,3.961,4.033,5.473,8.137,6.984c5.401,2.017,11.305,3.816,11.305,10.586
					c0,5.184-4.176,9.721-11.664,9.721c-5.113,0-9.577-2.16-12.674-4.753L362.868,67.599z"/>
				<path clip-path="url(#SVGID_6_)" fill="#666666" d="M393.958,22.091h3.168v14.977v7.633c3.601-3.6,7.201-6.264,11.953-6.264
					c7.129,0,10.44,4.32,10.44,13.25v22.176h-3.168V52.117c0-7.344-2.304-10.799-7.921-10.799c-4.104,0-7.057,2.159-11.305,6.479
					v26.065h-3.168V22.091z"/>
			</g>
		</g>
	</g>
</g>
<g>
	<g>
		<defs>
			<rect id="SVGID_17_" x="344.095" y="156.045" width="141.821" height="26.818"/>
		</defs>
		<clipPath id="SVGID_18_">
			<use xlink:href="#SVGID_17_"  overflow="visible"/>
		</clipPath>
		<g clip-path="url(#SVGID_18_)">
			<defs>
				<rect id="SVGID_19_" x="343.412" y="155.545" width="144" height="28"/>
			</defs>
			<clipPath id="SVGID_20_">
				<use xlink:href="#SVGID_19_"  overflow="visible"/>
			</clipPath>
			<g clip-path="url(#SVGID_20_)">
				<defs>
					<rect id="SVGID_21_" x="343.412" y="155.545" width="144" height="28"/>
				</defs>
				<clipPath id="SVGID_22_">
					<use xlink:href="#SVGID_21_"  overflow="visible"/>
				</clipPath>
				<g opacity="0.3" clip-path="url(#SVGID_22_)">
					<g>
						<defs>
							<rect id="SVGID_23_" x="359.102" y="164.719" width="16.777" height="18.145"/>
						</defs>
						<clipPath id="SVGID_24_">
							<use xlink:href="#SVGID_23_"  overflow="visible"/>
						</clipPath>
						<path clip-path="url(#SVGID_24_)" d="M367.49,164.719c4.537,0,8.389,3.312,8.389,9.107c0,5.727-3.852,9.039-8.389,9.039
							c-4.536,0-8.389-3.312-8.389-9.039C359.102,168.032,362.954,164.719,367.49,164.719"/>
					</g>
				</g>
				<path clip-path="url(#SVGID_22_)" fill="#F7C819" d="M367.49,164.219c4.537,0,8.389,3.312,8.389,9.107
					c0,5.727-3.852,9.039-8.389,9.039c-4.536,0-8.389-3.312-8.389-9.039C359.102,167.532,362.954,164.219,367.49,164.219"/>
				<g opacity="0.3" clip-path="url(#SVGID_22_)">
					<g>
						<defs>
							<rect id="SVGID_25_" x="344.095" y="164.719" width="12.169" height="18.145"/>
						</defs>
						<clipPath id="SVGID_26_">
							<use xlink:href="#SVGID_25_"  overflow="visible"/>
						</clipPath>
						<path clip-path="url(#SVGID_26_)" d="M345.031,179.299c1.476,1.225,3.024,2.197,5.508,2.197c2.7,0,4.105-1.584,4.105-3.422
							c0-2.16-2.232-3.096-4.213-3.814c-2.629-0.938-5.509-1.98-5.509-4.934c0-2.52,1.98-4.607,5.581-4.607
							c1.836,0,3.672,0.756,4.932,1.8l-0.863,1.116c-1.152-0.864-2.377-1.549-4.141-1.549c-2.664,0-3.889,1.549-3.889,3.133
							c0,1.98,2.017,2.736,4.068,3.492c2.701,1.008,5.652,1.908,5.652,5.293c0,2.592-2.088,4.859-5.832,4.859
							c-2.557,0-4.789-1.08-6.337-2.375L345.031,179.299z"/>
					</g>
				</g>
				<path clip-path="url(#SVGID_22_)" fill="#F7C819" d="M345.031,178.799c1.476,1.225,3.024,2.197,5.508,2.197
					c2.7,0,4.105-1.584,4.105-3.422c0-2.16-2.232-3.096-4.213-3.814c-2.629-0.938-5.509-1.98-5.509-4.934
					c0-2.52,1.98-4.607,5.581-4.607c1.836,0,3.672,0.756,4.932,1.8l-0.863,1.116c-1.152-0.864-2.377-1.549-4.141-1.549
					c-2.664,0-3.889,1.549-3.889,3.133c0,1.98,2.017,2.736,4.068,3.492c2.701,1.008,5.652,1.908,5.652,5.293
					c0,2.592-2.088,4.859-5.832,4.859c-2.557,0-4.789-1.08-6.337-2.375L345.031,178.799z"/>
				<g opacity="0.3" clip-path="url(#SVGID_22_)">
					<g>
						<defs>
							<rect id="SVGID_27_" x="380.343" y="156.545" width="3.276" height="26.318"/>
						</defs>
						<clipPath id="SVGID_28_">
							<use xlink:href="#SVGID_27_"  overflow="visible"/>
						</clipPath>
						<path clip-path="url(#SVGID_28_)" d="M380.343,156.545h1.584v23.799c0,0.756,0.324,1.115,0.757,1.115
							c0.144,0,0.287,0,0.648-0.07l0.287,1.295c-0.324,0.107-0.648,0.182-1.151,0.182c-1.405,0-2.125-0.865-2.125-2.738V156.545z"/>
					</g>
				</g>
				<path clip-path="url(#SVGID_22_)" fill="#F7C819" d="M380.343,156.045h1.584v23.799c0,0.756,0.324,1.115,0.757,1.115
					c0.144,0,0.287,0,0.648-0.07l0.287,1.295c-0.324,0.107-0.648,0.182-1.151,0.182c-1.405,0-2.125-0.865-2.125-2.738V156.045z"/>
				<g opacity="0.3" clip-path="url(#SVGID_22_)">
					<g>
						<defs>
							<rect id="SVGID_29_" x="387.19" y="164.719" width="12.745" height="18.145"/>
						</defs>
						<clipPath id="SVGID_30_">
							<use xlink:href="#SVGID_29_"  overflow="visible"/>
						</clipPath>
						<path clip-path="url(#SVGID_30_)" d="M398.352,171.594c0.071-2.627-0.685-5.471-4.068-5.471c-2.341,0-4.356,1.152-5.509,2.016
							l-0.72-1.188c1.224-0.865,3.6-2.232,6.408-2.232c4.104,0,5.473,2.952,5.473,6.66v11.053h-1.332l-0.181-2.232h-0.071
							c-1.765,1.404-3.853,2.664-6.121,2.664c-2.736,0-5.04-1.477-5.04-4.752C387.19,174.295,390.683,172.459,398.352,171.594
							 M392.482,181.497c1.98,0,3.744-0.973,5.869-2.809v-5.869c-7.093,0.83-9.505,2.484-9.505,5.221
							C388.847,180.524,390.503,181.497,392.482,181.497"/>
					</g>
				</g>
				<path clip-path="url(#SVGID_22_)" fill="#F7C819" d="M398.352,171.094c0.071-2.627-0.685-5.471-4.068-5.471
					c-2.341,0-4.356,1.152-5.509,2.016l-0.72-1.188c1.224-0.865,3.6-2.232,6.408-2.232c4.104,0,5.473,2.952,5.473,6.66v11.053
					h-1.332l-0.181-2.232h-0.071c-1.765,1.404-3.853,2.664-6.121,2.664c-2.736,0-5.04-1.477-5.04-4.752
					C387.19,173.795,390.683,171.959,398.352,171.094 M392.482,180.997c1.98,0,3.744-0.973,5.869-2.809v-5.869
					c-7.093,0.83-9.505,2.484-9.505,5.221C388.847,180.024,390.503,180.997,392.482,180.997"/>
				<g opacity="0.3" clip-path="url(#SVGID_22_)">
					<g>
						<defs>
							<rect id="SVGID_31_" x="405.881" y="164.719" width="8.245" height="17.713"/>
						</defs>
						<clipPath id="SVGID_32_">
							<use xlink:href="#SVGID_31_"  overflow="visible"/>
						</clipPath>
						<path clip-path="url(#SVGID_32_)" d="M405.881,165.151h1.368l0.145,3.205h0.108c1.151-2.125,2.844-3.637,4.896-3.637
							c0.647,0,1.151,0.072,1.728,0.359l-0.359,1.439c-0.577-0.215-0.9-0.287-1.585-0.287c-1.548,0-3.384,1.188-4.717,4.428v11.773
							h-1.584V165.151z"/>
					</g>
				</g>
				<path clip-path="url(#SVGID_22_)" fill="#F7C819" d="M405.881,164.651h1.368l0.145,3.205h0.108
					c1.151-2.125,2.844-3.637,4.896-3.637c0.647,0,1.151,0.072,1.728,0.359l-0.359,1.439c-0.577-0.215-0.9-0.287-1.585-0.287
					c-1.548,0-3.384,1.188-4.717,4.428v11.773h-1.584V164.651z"/>
			</g>
			<g clip-path="url(#SVGID_20_)">
				<defs>
					<rect id="SVGID_33_" x="343.412" y="155.545" width="144" height="28"/>
				</defs>
				<clipPath id="SVGID_34_">
					<use xlink:href="#SVGID_33_"  overflow="visible"/>
				</clipPath>
				<path clip-path="url(#SVGID_34_)" fill="#666666" d="M417.725,164.651h1.368l0.144,2.664h0.108
					c1.765-1.765,3.564-3.096,5.94-3.096c3.564,0,5.221,2.159,5.221,6.623v11.09h-1.584v-10.873c0-3.672-1.152-5.4-3.961-5.4
					c-2.052,0-3.528,1.08-5.652,3.24v13.033h-1.584V164.651z"/>
				<path clip-path="url(#SVGID_34_)" fill="#666666" d="M442.27,164.218c4.177,0,7.776,3.312,7.776,9.108
					c0,5.725-3.6,9.037-7.776,9.037c-4.141,0-7.74-3.312-7.74-9.037C434.529,167.531,438.129,164.218,442.27,164.218
					 M442.27,180.959c3.492,0,6.12-3.096,6.12-7.633c0-4.572-2.628-7.703-6.12-7.703s-6.084,3.131-6.084,7.703
					C436.186,177.864,438.777,180.959,442.27,180.959"/>
				<path clip-path="url(#SVGID_34_)" fill="#666666" d="M460.838,164.218c2.088,0,3.492,0.792,5.221,2.124l-0.072-3.168v-7.129
					h1.584v25.887h-1.367l-0.145-2.232h-0.107c-1.404,1.404-3.312,2.664-5.617,2.664c-4.355,0-7.164-3.203-7.164-9.037
					C453.17,167.747,456.734,164.218,460.838,164.218 M460.551,180.959c1.908,0,3.6-1.008,5.436-2.844v-10.262
					c-1.836-1.619-3.348-2.23-5.041-2.23c-3.455,0-6.084,3.348-6.084,7.703C454.861,177.899,456.879,180.959,460.551,180.959"/>
				<path clip-path="url(#SVGID_34_)" fill="#666666" d="M479.291,164.219c4.105,0,6.625,2.916,6.625,7.992
					c0,0.432,0,0.863-0.072,1.295h-12.457c0.072,4.357,2.629,7.49,6.518,7.49c1.871,0,3.348-0.613,4.645-1.549l0.646,1.225
					c-1.367,0.828-2.916,1.691-5.436,1.691c-4.428,0-7.992-3.383-7.992-9.037C471.768,167.674,475.439,164.219,479.291,164.219
					 M484.404,172.284c0-4.429-1.98-6.697-5.076-6.697c-2.953,0-5.58,2.557-5.941,6.697H484.404z"/>
			</g>
		</g>
	</g>
</g>
<g>
	<g>
		<defs>
			<rect id="SVGID_35_" x="152.471" y="156.472" width="117.821" height="26.818"/>
		</defs>
		<clipPath id="SVGID_36_">
			<use xlink:href="#SVGID_35_"  overflow="visible"/>
		</clipPath>
		<g clip-path="url(#SVGID_36_)">
			<defs>
				<rect id="SVGID_37_" x="151.787" y="155.972" width="118.999" height="28"/>
			</defs>
			<clipPath id="SVGID_38_">
				<use xlink:href="#SVGID_37_"  overflow="visible"/>
			</clipPath>
			<g clip-path="url(#SVGID_38_)">
				<defs>
					<rect id="SVGID_39_" x="151.787" y="155.972" width="118.999" height="28"/>
				</defs>
				<clipPath id="SVGID_40_">
					<use xlink:href="#SVGID_39_"  overflow="visible"/>
				</clipPath>
				<g opacity="0.3" clip-path="url(#SVGID_40_)">
					<g>
						<defs>
							<rect id="SVGID_41_" x="167.477" y="165.144" width="16.777" height="18.146"/>
						</defs>
						<clipPath id="SVGID_42_">
							<use xlink:href="#SVGID_41_"  overflow="visible"/>
						</clipPath>
						<path clip-path="url(#SVGID_42_)" d="M175.865,165.144c4.537,0,8.389,3.312,8.389,9.109c0,5.725-3.852,9.037-8.389,9.037
							c-4.535,0-8.389-3.312-8.389-9.037C167.477,168.456,171.33,165.144,175.865,165.144"/>
					</g>
				</g>
				<path clip-path="url(#SVGID_40_)" fill="#F7C819" d="M175.865,164.644c4.537,0,8.389,3.312,8.389,9.109
					c0,5.725-3.852,9.037-8.389,9.037c-4.535,0-8.389-3.312-8.389-9.037C167.477,167.956,171.33,164.644,175.865,164.644"/>
				<g opacity="0.3" clip-path="url(#SVGID_40_)">
					<g>
						<defs>
							<rect id="SVGID_43_" x="152.471" y="165.144" width="12.168" height="18.146"/>
						</defs>
						<clipPath id="SVGID_44_">
							<use xlink:href="#SVGID_43_"  overflow="visible"/>
						</clipPath>
						<path clip-path="url(#SVGID_44_)" d="M153.406,179.726c1.477,1.224,3.024,2.196,5.509,2.196c2.7,0,4.104-1.584,4.104-3.421
							c0-2.16-2.232-3.096-4.213-3.815c-2.629-0.937-5.508-1.98-5.508-4.934c0-2.52,1.98-4.608,5.58-4.608
							c1.836,0,3.672,0.757,4.933,1.801l-0.864,1.116c-1.152-0.864-2.377-1.548-4.141-1.548c-2.664,0-3.889,1.548-3.889,3.132
							c0,1.98,2.017,2.736,4.068,3.492c2.701,1.009,5.652,1.908,5.652,5.293c0,2.592-2.088,4.86-5.832,4.86
							c-2.557,0-4.788-1.08-6.336-2.376L153.406,179.726z"/>
					</g>
				</g>
				<path clip-path="url(#SVGID_40_)" fill="#F7C819" d="M153.406,179.226c1.477,1.224,3.024,2.196,5.509,2.196
					c2.7,0,4.104-1.584,4.104-3.421c0-2.16-2.232-3.096-4.213-3.815c-2.629-0.937-5.508-1.98-5.508-4.934
					c0-2.52,1.98-4.608,5.58-4.608c1.836,0,3.672,0.757,4.933,1.801l-0.864,1.116c-1.152-0.864-2.377-1.548-4.141-1.548
					c-2.664,0-3.889,1.548-3.889,3.132c0,1.98,2.017,2.736,4.068,3.492c2.701,1.009,5.652,1.908,5.652,5.293
					c0,2.592-2.088,4.86-5.832,4.86c-2.557,0-4.788-1.08-6.336-2.376L153.406,179.226z"/>
				<g opacity="0.3" clip-path="url(#SVGID_40_)">
					<g>
						<defs>
							<rect id="SVGID_45_" x="188.719" y="156.972" width="3.275" height="26.318"/>
						</defs>
						<clipPath id="SVGID_46_">
							<use xlink:href="#SVGID_45_"  overflow="visible"/>
						</clipPath>
						<path clip-path="url(#SVGID_46_)" d="M188.719,156.972h1.584v23.798c0,0.756,0.323,1.116,0.756,1.116
							c0.144,0,0.287,0,0.648-0.072l0.287,1.296c-0.323,0.108-0.648,0.181-1.151,0.181c-1.404,0-2.124-0.864-2.124-2.736V156.972z"
							/>
					</g>
				</g>
				<path clip-path="url(#SVGID_40_)" fill="#F7C819" d="M188.719,156.472h1.584v23.798c0,0.756,0.323,1.116,0.756,1.116
					c0.144,0,0.287,0,0.648-0.072l0.287,1.296c-0.323,0.108-0.648,0.181-1.151,0.181c-1.404,0-2.124-0.864-2.124-2.736V156.472z"/>
				<g opacity="0.3" clip-path="url(#SVGID_40_)">
					<g>
						<defs>
							<rect id="SVGID_47_" x="195.565" y="165.144" width="12.745" height="18.146"/>
						</defs>
						<clipPath id="SVGID_48_">
							<use xlink:href="#SVGID_47_"  overflow="visible"/>
						</clipPath>
						<path clip-path="url(#SVGID_48_)" d="M206.727,172.021c0.072-2.628-0.684-5.473-4.068-5.473c-2.34,0-4.356,1.152-5.509,2.017
							l-0.72-1.188c1.225-0.864,3.6-2.232,6.408-2.232c4.105,0,5.473,2.953,5.473,6.661v11.053h-1.332l-0.18-2.231h-0.072
							c-1.764,1.403-3.852,2.664-6.121,2.664c-2.736,0-5.04-1.477-5.04-4.753C195.565,174.721,199.058,172.885,206.727,172.021
							 M200.857,181.922c1.98,0,3.746-0.973,5.869-2.809v-5.868c-7.093,0.828-9.505,2.484-9.505,5.221
							C197.222,180.949,198.878,181.922,200.857,181.922"/>
					</g>
				</g>
				<path clip-path="url(#SVGID_40_)" fill="#F7C819" d="M206.727,171.521c0.072-2.628-0.684-5.473-4.068-5.473
					c-2.34,0-4.356,1.152-5.509,2.017l-0.72-1.188c1.225-0.864,3.6-2.232,6.408-2.232c4.105,0,5.473,2.953,5.473,6.661v11.053
					h-1.332l-0.18-2.231h-0.072c-1.764,1.403-3.852,2.664-6.121,2.664c-2.736,0-5.04-1.477-5.04-4.753
					C195.565,174.221,199.058,172.385,206.727,171.521 M200.857,181.422c1.98,0,3.746-0.973,5.869-2.809v-5.868
					c-7.093,0.828-9.505,2.484-9.505,5.221C197.222,180.449,198.878,181.422,200.857,181.422"/>
				<g opacity="0.3" clip-path="url(#SVGID_40_)">
					<g>
						<defs>
							<rect id="SVGID_49_" x="214.256" y="165.144" width="8.245" height="17.714"/>
						</defs>
						<clipPath id="SVGID_50_">
							<use xlink:href="#SVGID_49_"  overflow="visible"/>
						</clipPath>
						<path clip-path="url(#SVGID_50_)" d="M214.256,165.576h1.369l0.145,3.204h0.107c1.152-2.124,2.843-3.636,4.896-3.636
							c0.648,0,1.152,0.071,1.729,0.359l-0.359,1.44c-0.578-0.216-0.9-0.288-1.586-0.288c-1.547,0-3.383,1.188-4.716,4.429v11.772
							h-1.584V165.576z"/>
					</g>
				</g>
				<path clip-path="url(#SVGID_40_)" fill="#F7C819" d="M214.256,165.076h1.369l0.145,3.204h0.107
					c1.152-2.124,2.843-3.636,4.896-3.636c0.648,0,1.152,0.071,1.729,0.359l-0.359,1.44c-0.578-0.216-0.9-0.288-1.586-0.288
					c-1.547,0-3.383,1.188-4.716,4.429v11.772h-1.584V165.076z"/>
				<path clip-path="url(#SVGID_40_)" fill="#666666" d="M226.161,165.076h1.367l0.145,2.664h0.107
					c1.766-1.765,3.564-3.096,5.941-3.096c3.564,0,5.221,2.159,5.221,6.624v11.089h-1.584v-10.873c0-3.672-1.152-5.4-3.961-5.4
					c-2.053,0-3.529,1.08-5.652,3.24v13.033h-1.584V165.076z"/>
				<path clip-path="url(#SVGID_40_)" fill="#666666" d="M251.39,164.645c4.105,0,6.625,2.916,6.625,7.992
					c0,0.433,0,0.864-0.072,1.296h-12.457c0.072,4.356,2.629,7.489,6.516,7.489c1.873,0,3.35-0.612,4.645-1.548l0.648,1.224
					c-1.367,0.828-2.916,1.692-5.436,1.692c-4.43,0-7.992-3.385-7.992-9.037S247.538,164.645,251.39,164.645 M256.503,172.709
					c0-4.429-1.98-6.697-5.076-6.697c-2.953,0-5.582,2.557-5.941,6.697H256.503z"/>
				<path clip-path="url(#SVGID_40_)" fill="#666666" d="M263.165,166.444h-2.701v-1.224l2.736-0.145l0.217-5.005h1.367v5.005h5.006
					v1.368h-5.006v11.27c0,2.195,0.539,3.672,2.916,3.672c0.648,0,1.549-0.252,2.16-0.54l0.432,1.296
					c-1.008,0.36-2.088,0.648-2.807,0.648c-3.35,0-4.32-2.124-4.32-5.221V166.444z"/>
			</g>
		</g>
	</g>
</g>
<g>
	<g>
		<g enable-background="new    ">
			<g>
				<polygon fill="#7F7E77" points="51.854,66.943 40.456,60.743 40.457,60.268 51.854,66.467 				"/>
			</g>
			<g enable-background="new    ">
				<defs>
					<path id="SVGID_51_" enable-background="new    " d="M50.955,68.029l-11.397-6.2c0.497-0.07,0.898-0.55,0.899-1.086l11.397,6.2
						C51.853,67.479,51.451,67.959,50.955,68.029z"/>
				</defs>
				<clipPath id="SVGID_52_">
					<use xlink:href="#SVGID_51_"  overflow="visible"/>
				</clipPath>
				<g clip-path="url(#SVGID_52_)" enable-background="new    ">
					<path fill="#A4A299" d="M50.955,68.029l-11.397-6.2c0.093-0.013,0.184-0.041,0.268-0.081l11.397,6.2
						C51.138,67.988,51.048,68.016,50.955,68.029"/>
					<path fill="#9F9D94" d="M51.223,67.948l-11.397-6.2c0.051-0.024,0.1-0.052,0.146-0.084l11.397,6.2
						C51.323,67.896,51.273,67.924,51.223,67.948"/>
					<path fill="#9A9990" d="M51.369,67.864l-11.397-6.2c0.038-0.026,0.074-0.055,0.108-0.086l11.397,6.2
						C51.443,67.809,51.407,67.838,51.369,67.864"/>
					<path fill="#95948B" d="M51.477,67.778l-11.397-6.2c0.032-0.028,0.062-0.059,0.09-0.091l11.397,6.2
						C51.539,67.719,51.509,67.75,51.477,67.778"/>
					<path fill="#908F87" d="M51.567,67.687l-11.397-6.2c0.028-0.032,0.055-0.065,0.08-0.101l11.397,6.2
						C51.623,67.621,51.596,67.655,51.567,67.687"/>
					<path fill="#8B8A82" d="M51.647,67.586l-11.397-6.2c0.026-0.037,0.05-0.076,0.072-0.116l11.397,6.2
						C51.697,67.51,51.673,67.549,51.647,67.586"/>
					<path fill="#86857D" d="M51.719,67.47l-11.397-6.2c0.025-0.047,0.048-0.097,0.066-0.148l11.397,6.2
						C51.767,67.373,51.744,67.422,51.719,67.47"/>
					<path fill="#818079" d="M51.785,67.322l-11.397-6.2c0.044-0.119,0.068-0.247,0.068-0.378l11.397,6.2
						C51.854,67.074,51.829,67.202,51.785,67.322"/>
				</g>
			</g>
			<g>
				<polygon fill="#7F7E77" points="51.854,66.467 40.457,60.268 40.461,58.339 51.858,64.54 				"/>
			</g>
			<g>
				<polygon fill="#7F7E77" points="51.858,64.54 40.461,58.339 40.462,57.864 51.859,64.063 				"/>
			</g>
			<g enable-background="new    ">
				<defs>
					<path id="SVGID_53_" enable-background="new    " d="M40.048,57.113l11.397,6.2c0.25,0.136,0.415,0.413,0.414,0.751
						l-11.397-6.2C40.462,57.525,40.297,57.249,40.048,57.113z"/>
				</defs>
				<clipPath id="SVGID_54_">
					<use xlink:href="#SVGID_53_"  overflow="visible"/>
				</clipPath>
				<g clip-path="url(#SVGID_54_)" enable-background="new    ">
					<path fill="#818079" d="M51.859,64.063l-11.397-6.2c0-0.339-0.165-0.615-0.414-0.751l11.397,6.2
						C51.695,63.449,51.86,63.725,51.859,64.063"/>
				</g>
			</g>
			<g>
				<polygon fill="#B0AEA4" points="46.061,68.717 34.663,62.517 39.557,61.829 50.955,68.029 				"/>
			</g>
			<g enable-background="new    ">
				<defs>
					<path id="SVGID_55_" enable-background="new    " d="M52.763,55.768l-11.397-6.2c1.226-0.172,2.221-1.384,2.223-2.707
						l11.397,6.2C54.984,54.384,53.989,55.596,52.763,55.768z"/>
				</defs>
				<clipPath id="SVGID_56_">
					<use xlink:href="#SVGID_55_"  overflow="visible"/>
				</clipPath>
				<g clip-path="url(#SVGID_56_)" enable-background="new    ">
					<path fill="#A4A299" d="M52.763,55.768l-11.397-6.2c0.226-0.032,0.444-0.099,0.649-0.195l11.397,6.2
						C53.207,55.669,52.989,55.736,52.763,55.768"/>
					<path fill="#9F9D94" d="M53.412,55.573l-11.397-6.2c0.125-0.059,0.246-0.129,0.36-0.208l11.397,6.2
						C53.658,55.444,53.538,55.514,53.412,55.573"/>
					<path fill="#9A9990" d="M53.772,55.365l-11.397-6.2c0.094-0.064,0.183-0.136,0.269-0.212l11.397,6.2
						C53.956,55.229,53.866,55.3,53.772,55.365"/>
					<path fill="#95948B" d="M54.041,55.153l-11.397-6.2c0.079-0.071,0.155-0.148,0.226-0.229l11.397,6.2
						C54.196,55.005,54.12,55.081,54.041,55.153"/>
					<path fill="#908F87" d="M54.267,54.924l-11.397-6.2c0.071-0.081,0.138-0.165,0.2-0.253l11.397,6.2
						C54.405,54.759,54.338,54.844,54.267,54.924"/>
					<path fill="#8B8A82" d="M54.467,54.671l-11.397-6.2c0.066-0.094,0.126-0.192,0.181-0.293l11.397,6.2
						C54.593,54.479,54.533,54.577,54.467,54.671"/>
					<path fill="#86857D" d="M54.647,54.377l-11.397-6.2c0.064-0.12,0.121-0.245,0.168-0.374l11.397,6.2
						C54.769,54.133,54.712,54.258,54.647,54.377"/>
					<path fill="#818079" d="M54.815,54.004l-11.397-6.2c0.11-0.298,0.17-0.618,0.171-0.943l11.397,6.2
						C54.986,53.387,54.925,53.706,54.815,54.004"/>
				</g>
			</g>
			<g enable-background="new    ">
				<defs>
					<path id="SVGID_57_" enable-background="new    " d="M45.584,68.635l-11.397-6.2c0.138,0.075,0.301,0.106,0.477,0.082
						l11.397,6.2C45.886,68.741,45.722,68.71,45.584,68.635z"/>
				</defs>
				<clipPath id="SVGID_58_">
					<use xlink:href="#SVGID_57_"  overflow="visible"/>
				</clipPath>
				<g clip-path="url(#SVGID_58_)" enable-background="new    ">
					<path fill="#9A9990" d="M45.584,68.635l-11.397-6.2c0.009,0.005,0.018,0.009,0.027,0.014l11.398,6.2
						C45.602,68.645,45.593,68.64,45.584,68.635"/>
					<path fill="#9F9D94" d="M45.611,68.649l-11.398-6.2c0.045,0.022,0.092,0.039,0.141,0.052l11.397,6.2
						C45.703,68.688,45.656,68.671,45.611,68.649"/>
					<path fill="#A4A299" d="M45.752,68.701l-11.397-6.2c0.096,0.025,0.2,0.031,0.309,0.016l11.397,6.2
						C45.952,68.732,45.848,68.726,45.752,68.701"/>
				</g>
			</g>
			<g>
				<polygon fill="#B0AEA4" points="36.275,68.657 24.877,62.457 33.776,61.207 45.174,67.406 				"/>
			</g>
			<g>
				<polygon fill="#7F7E77" points="54.986,53.061 43.589,46.861 43.634,22.842 55.032,29.042 				"/>
			</g>
			<g enable-background="new    ">
				<defs>
					<path id="SVGID_59_" enable-background="new    " d="M42.6,20.954c3.799,2.066,7.598,4.133,11.397,6.2
						c0.623,0.339,1.036,1.034,1.034,1.888l-11.397-6.2C43.636,21.987,43.223,21.292,42.6,20.954z"/>
				</defs>
				<clipPath id="SVGID_60_">
					<use xlink:href="#SVGID_59_"  overflow="visible"/>
				</clipPath>
				<g clip-path="url(#SVGID_60_)" enable-background="new    ">
					<path fill="#818079" d="M55.032,29.042l-11.397-6.2c0.001-0.854-0.412-1.55-1.034-1.888l11.397,6.2
						C54.621,27.492,55.033,28.188,55.032,29.042"/>
				</g>
			</g>
			<g enable-background="new    ">
				<defs>
					<path id="SVGID_61_" enable-background="new    " d="M46.176,14.687c1.9,1.034,3.799,2.067,5.699,3.1
						c1.9,1.033,3.799,2.067,5.699,3.1c-0.343-0.187-0.75-0.266-1.189-0.204l-11.397-6.2C45.425,14.421,45.833,14.5,46.176,14.687z"
						/>
				</defs>
				<clipPath id="SVGID_62_">
					<use xlink:href="#SVGID_61_"  overflow="visible"/>
				</clipPath>
				<g clip-path="url(#SVGID_62_)" enable-background="new    ">
					<path fill="#A4A299" d="M56.384,20.683l-11.397-6.2c0.271-0.038,0.53-0.022,0.77,0.04l11.397,6.2
						C56.915,20.661,56.655,20.645,56.384,20.683"/>
					<path fill="#9F9D94" d="M57.154,20.722l-11.397-6.2c0.123,0.031,0.24,0.075,0.351,0.13l11.398,6.2
						C57.395,20.797,57.277,20.754,57.154,20.722"/>
					<path fill="#9A9990" d="M57.506,20.852l-11.398-6.2c0.023,0.011,0.046,0.022,0.068,0.035l11.397,6.2
						C57.551,20.875,57.528,20.863,57.506,20.852"/>
				</g>
			</g>
			<g enable-background="new    ">
				<defs>
					<path id="SVGID_63_" enable-background="new    " d="M19.963,83.208c-3.799-2.067-7.598-4.133-11.397-6.2
						c-0.372-0.203-0.62-0.617-0.619-1.133l11.398,6.2C19.344,82.592,19.591,83.006,19.963,83.208z"/>
				</defs>
				<clipPath id="SVGID_64_">
					<use xlink:href="#SVGID_63_"  overflow="visible"/>
				</clipPath>
				<g clip-path="url(#SVGID_64_)" enable-background="new    ">
					<path fill="#818079" d="M19.963,83.208l-11.397-6.2c-0.372-0.203-0.62-0.617-0.619-1.133l11.398,6.2
						C19.344,82.592,19.591,83.006,19.963,83.208"/>
				</g>
			</g>
			<g>
				<polygon fill="#7F7E77" points="19.345,82.076 7.947,75.875 7.955,72.028 19.352,78.228 				"/>
			</g>
			<g enable-background="new    ">
				<defs>
					<path id="SVGID_65_" enable-background="new    " d="M19.352,78.228l-11.397-6.2c-0.536-0.365-0.887-1.008-0.885-1.786
						l11.397,6.2C18.465,77.22,18.816,77.862,19.352,78.228z"/>
				</defs>
				<clipPath id="SVGID_66_">
					<use xlink:href="#SVGID_65_"  overflow="visible"/>
				</clipPath>
				<g clip-path="url(#SVGID_66_)" enable-background="new    ">
					<path fill="#818079" d="M19.352,78.228l-11.397-6.2c-0.536-0.365-0.887-1.008-0.885-1.786l11.397,6.2
						C18.465,77.22,18.816,77.862,19.352,78.228"/>
				</g>
			</g>
			<g>
				<polygon fill="#B0AEA4" points="24.28,59.772 12.882,53.572 41.366,49.568 52.763,55.768 				"/>
			</g>
			<g enable-background="new    ">
				<defs>
					<path id="SVGID_67_" enable-background="new    " d="M23.089,59.567l-11.397-6.2c0.345,0.188,0.753,0.267,1.191,0.205
						l11.397,6.2C23.842,59.833,23.434,59.754,23.089,59.567z"/>
				</defs>
				<clipPath id="SVGID_68_">
					<use xlink:href="#SVGID_67_"  overflow="visible"/>
				</clipPath>
				<g clip-path="url(#SVGID_68_)" enable-background="new    ">
					<path fill="#9A9990" d="M23.089,59.567l-11.397-6.2c0.022,0.012,0.045,0.024,0.068,0.035l11.397,6.2
						C23.134,59.591,23.111,59.579,23.089,59.567"/>
					<path fill="#9F9D94" d="M23.157,59.602l-11.397-6.2c0.112,0.055,0.229,0.099,0.353,0.13l11.397,6.2
						C23.387,59.701,23.269,59.657,23.157,59.602"/>
					<path fill="#A4A299" d="M23.51,59.732l-11.397-6.2c0.24,0.062,0.499,0.078,0.77,0.04l11.397,6.2
						C24.009,59.81,23.75,59.794,23.51,59.732"/>
				</g>
			</g>
			<g>
				<polygon fill="#B0AEA4" points="20.788,25.687 9.391,19.486 44.987,14.483 56.384,20.683 				"/>
			</g>
			<g>
				<polygon fill="#7F7E77" points="18.467,76.442 7.069,70.242 7.159,22.203 18.557,28.403 				"/>
			</g>
			<g>
				<path fill="#D9D7CB" d="M56.384,20.683c1.234-0.173,2.225,0.768,2.222,2.09l-0.09,48.039c-0.001,0.778-0.355,1.52-0.893,2.036
					l-0.007,3.847c-0.001,0.804-0.603,1.528-1.34,1.632L20.68,83.332c-0.736,0.104-1.336-0.452-1.334-1.256l0.007-3.848
					c-0.536-0.366-0.887-1.008-0.885-1.786l0.09-48.039c0.002-1.323,0.998-2.543,2.231-2.717L56.384,20.683z M54.986,53.061
					l0.045-24.02c0.002-1.323-0.989-2.264-2.214-2.091l-28.484,4.003c-1.225,0.172-2.229,1.394-2.231,2.717l-0.045,24.019
					c-0.002,1.323,0.997,2.255,2.222,2.083l28.483-4.004C53.989,55.596,54.984,54.384,54.986,53.061 M51.858,64.54l0.001-0.476
					c0.001-0.527-0.399-0.903-0.896-0.833l-4.894,0.688c-0.488,0.069-0.89,0.558-0.891,1.085l-0.001,0.476l-8.899,1.251
					l-0.003,1.928l8.899-1.251l0,0.476c-0.001,0.536,0.398,0.904,0.887,0.835l4.894-0.688c0.497-0.07,0.898-0.55,0.899-1.086
					l0.001-0.476L51.858,64.54"/>
			</g>
			<g enable-background="new    ">
				<defs>
					<path id="SVGID_69_" enable-background="new    " d="M18.557,28.403l-11.397-6.2c0.002-1.323,0.998-2.543,2.231-2.717
						l11.397,6.2C19.555,25.86,18.559,27.08,18.557,28.403z"/>
				</defs>
				<clipPath id="SVGID_70_">
					<use xlink:href="#SVGID_69_"  overflow="visible"/>
				</clipPath>
				<g clip-path="url(#SVGID_70_)" enable-background="new    ">
					<path fill="#818079" d="M18.557,28.403l-11.397-6.2c0-0.326,0.062-0.646,0.171-0.945l11.398,6.2
						C18.618,27.757,18.557,28.077,18.557,28.403"/>
					<path fill="#86857D" d="M18.729,27.458l-11.398-6.2c0.048-0.129,0.104-0.255,0.169-0.375l11.397,6.2
						C18.833,27.203,18.776,27.329,18.729,27.458"/>
					<path fill="#8B8A82" d="M18.897,27.083L7.5,20.882c0.055-0.102,0.116-0.2,0.182-0.294l11.397,6.2
						C19.013,26.882,18.952,26.98,18.897,27.083"/>
					<path fill="#908F87" d="M19.079,26.788l-11.397-6.2c0.062-0.089,0.129-0.174,0.201-0.255l11.397,6.2
						C19.208,26.614,19.141,26.699,19.079,26.788"/>
					<path fill="#95948B" d="M19.279,26.533l-11.397-6.2c0.071-0.081,0.147-0.158,0.227-0.229l11.397,6.2
						C19.427,26.375,19.351,26.452,19.279,26.533"/>
					<path fill="#9A9990" d="M19.506,26.304l-11.397-6.2c0.085-0.077,0.175-0.148,0.269-0.213l11.397,6.2
						C19.682,26.156,19.592,26.227,19.506,26.304"/>
					<path fill="#9F9D94" d="M19.775,26.091l-11.397-6.2c0.115-0.08,0.236-0.149,0.361-0.208l11.397,6.2
						C20.011,25.941,19.891,26.011,19.775,26.091"/>
					<path fill="#A4A299" d="M20.137,25.882l-11.397-6.2c0.206-0.097,0.425-0.164,0.651-0.196l11.397,6.2
						C20.562,25.718,20.343,25.786,20.137,25.882"/>
				</g>
			</g>
		</g>
	</g>
</g>
<g>
	<g>
		<line fill="none" stroke="#666666" stroke-miterlimit="10" x1="65" y1="48.5" x2="162" y2="48.5"/>
		<g>
			<polygon fill="#666666" points="159.222,52.203 160.795,48.5 159.222,44.797 168,48.5 			"/>
		</g>
	</g>
</g>
<g>
	<path fill="#808080" d="M94.122,35.25v3.382h3.91V35.25h1.056v8.083h-1.056v-3.79h-3.91v3.79h-1.043V35.25H94.122z"/>
	<path fill="#808080" d="M102.437,36.137h-2.459V35.25h5.985v0.887h-2.471v7.196h-1.055V36.137z"/>
	<path fill="#808080" d="M108.857,36.137h-2.459V35.25h5.985v0.887h-2.471v7.196h-1.055V36.137z"/>
	<path fill="#808080" d="M113.286,35.345c0.503-0.084,1.163-0.156,2.003-0.156c1.031,0,1.787,0.24,2.267,0.672
		c0.444,0.384,0.708,0.971,0.708,1.691c0,0.731-0.216,1.307-0.624,1.727c-0.552,0.587-1.451,0.888-2.471,0.888
		c-0.312,0-0.6-0.012-0.839-0.072v3.238h-1.043V35.345z M114.329,39.243c0.228,0.06,0.516,0.084,0.863,0.084
		c1.259,0,2.027-0.612,2.027-1.727c0-1.067-0.755-1.583-1.907-1.583c-0.456,0-0.804,0.036-0.983,0.084V39.243z"/>
	<path fill="#808080" d="M119.526,42.062c0.468,0.288,1.151,0.528,1.871,0.528c1.067,0,1.691-0.563,1.691-1.379
		c0-0.755-0.432-1.187-1.523-1.607c-1.319-0.468-2.135-1.151-2.135-2.291c0-1.259,1.043-2.195,2.615-2.195
		c0.828,0,1.427,0.192,1.787,0.396l-0.288,0.852c-0.264-0.144-0.803-0.384-1.535-0.384c-1.103,0-1.523,0.66-1.523,1.211
		c0,0.755,0.492,1.127,1.607,1.559c1.368,0.528,2.063,1.188,2.063,2.375c0,1.248-0.923,2.327-2.831,2.327
		c-0.779,0-1.631-0.228-2.062-0.516L119.526,42.062z"/>
</g>
<path fill="none" stroke="#333333" stroke-miterlimit="10" d="M274.5,187.573c0,1.616-1.311,2.927-2.927,2.927H151.427
	c-1.616,0-2.927-1.311-2.927-2.927v-34.146c0-1.616,1.311-2.927,2.927-2.927h120.146c1.616,0,2.927,1.311,2.927,2.927V187.573z"/>
<path fill="none" stroke="#333333" stroke-miterlimit="10" d="M490.5,187.788c0,1.473-1.764,2.712-3.33,2.712H342.843
	c-1.567,0-2.343-1.239-2.343-2.712v-34.667c0-1.473,0.775-2.621,2.343-2.621H487.17c1.566,0,3.33,1.148,3.33,2.621V187.788z"/>
<g>
	<path fill="#808080" d="M169.122,114.167v3.382h3.91v-3.382h1.056v8.083h-1.056v-3.79h-3.91v3.79h-1.043v-8.083H169.122z"/>
	<path fill="#808080" d="M177.437,115.054h-2.459v-0.887h5.985v0.887h-2.471v7.196h-1.055V115.054z"/>
	<path fill="#808080" d="M183.857,115.054h-2.459v-0.887h5.985v0.887h-2.471v7.196h-1.055V115.054z"/>
	<path fill="#808080" d="M188.286,114.262c0.503-0.084,1.163-0.156,2.003-0.156c1.031,0,1.787,0.24,2.267,0.672
		c0.444,0.384,0.708,0.971,0.708,1.691c0,0.731-0.216,1.307-0.624,1.727c-0.552,0.587-1.451,0.888-2.471,0.888
		c-0.312,0-0.6-0.012-0.839-0.072v3.238h-1.043V114.262z M189.329,118.16c0.228,0.06,0.516,0.084,0.863,0.084
		c1.259,0,2.027-0.612,2.027-1.727c0-1.067-0.755-1.583-1.907-1.583c-0.456,0-0.804,0.036-0.983,0.084V118.16z"/>
	<path fill="#808080" d="M194.526,120.979c0.468,0.288,1.151,0.528,1.871,0.528c1.067,0,1.691-0.563,1.691-1.379
		c0-0.755-0.432-1.187-1.523-1.607c-1.319-0.468-2.135-1.151-2.135-2.291c0-1.259,1.043-2.195,2.615-2.195
		c0.828,0,1.427,0.192,1.787,0.396l-0.288,0.852c-0.264-0.144-0.803-0.384-1.535-0.384c-1.103,0-1.523,0.66-1.523,1.211
		c0,0.755,0.492,1.127,1.607,1.559c1.368,0.528,2.063,1.188,2.063,2.375c0,1.248-0.923,2.327-2.831,2.327
		c-0.779,0-1.631-0.228-2.062-0.516L194.526,120.979z"/>
</g>
<g>
	<path fill="#808080" d="M293.122,157.667v3.382h3.91v-3.382h1.056v8.083h-1.056v-3.79h-3.91v3.79h-1.043v-8.083H293.122z"/>
	<path fill="#808080" d="M301.438,158.554h-2.459v-0.887h5.984v0.887h-2.471v7.196h-1.055V158.554z"/>
	<path fill="#808080" d="M307.857,158.554h-2.459v-0.887h5.984v0.887h-2.471v7.196h-1.055V158.554z"/>
	<path fill="#808080" d="M312.285,157.762c0.504-0.084,1.164-0.156,2.004-0.156c1.031,0,1.786,0.24,2.266,0.672
		c0.444,0.384,0.708,0.971,0.708,1.691c0,0.731-0.216,1.307-0.624,1.727c-0.551,0.587-1.451,0.888-2.471,0.888
		c-0.312,0-0.6-0.012-0.839-0.072v3.238h-1.044V157.762z M313.329,161.66c0.228,0.06,0.516,0.084,0.863,0.084
		c1.259,0,2.026-0.612,2.026-1.727c0-1.067-0.755-1.583-1.906-1.583c-0.456,0-0.804,0.036-0.983,0.084V161.66z"/>
	<path fill="#808080" d="M318.525,164.479c0.469,0.288,1.152,0.528,1.871,0.528c1.068,0,1.691-0.563,1.691-1.379
		c0-0.755-0.432-1.187-1.523-1.607c-1.318-0.468-2.135-1.151-2.135-2.291c0-1.259,1.043-2.195,2.615-2.195
		c0.827,0,1.427,0.192,1.787,0.396l-0.289,0.852c-0.264-0.144-0.803-0.384-1.535-0.384c-1.103,0-1.522,0.66-1.522,1.211
		c0,0.755,0.491,1.127,1.606,1.559c1.368,0.528,2.063,1.188,2.063,2.375c0,1.248-0.923,2.327-2.831,2.327
		c-0.779,0-1.631-0.228-2.062-0.516L318.525,164.479z"/>
</g>
<g>
	<path fill="#009245" d="M391.434,120.979c0.469,0.288,1.152,0.528,1.871,0.528c1.068,0,1.691-0.563,1.691-1.379
		c0-0.755-0.432-1.187-1.523-1.607c-1.318-0.468-2.135-1.151-2.135-2.291c0-1.259,1.043-2.195,2.615-2.195
		c0.827,0,1.427,0.192,1.787,0.396l-0.289,0.852c-0.264-0.144-0.803-0.384-1.535-0.384c-1.103,0-1.522,0.66-1.522,1.211
		c0,0.755,0.491,1.127,1.606,1.559c1.368,0.528,2.063,1.188,2.063,2.375c0,1.248-0.923,2.327-2.831,2.327
		c-0.779,0-1.631-0.228-2.062-0.516L391.434,120.979z"/>
	<path fill="#009245" d="M397.35,120.979c0.469,0.288,1.152,0.528,1.871,0.528c1.068,0,1.691-0.563,1.691-1.379
		c0-0.755-0.432-1.187-1.523-1.607c-1.318-0.468-2.135-1.151-2.135-2.291c0-1.259,1.043-2.195,2.615-2.195
		c0.827,0,1.427,0.192,1.787,0.396l-0.289,0.852c-0.264-0.144-0.803-0.384-1.535-0.384c-1.103,0-1.522,0.66-1.522,1.211
		c0,0.755,0.491,1.127,1.606,1.559c1.368,0.528,2.063,1.188,2.063,2.375c0,1.248-0.923,2.327-2.831,2.327
		c-0.779,0-1.631-0.228-2.062-0.516L397.35,120.979z"/>
	<path fill="#009245" d="M404.453,114.167v3.382h3.91v-3.382h1.056v8.083h-1.056v-3.79h-3.91v3.79h-1.043v-8.083H404.453z"/>
</g>
</svg>
